HIERARCHY
ROOT hip
{
	OFFSET 0.000000 0.000000 0.000000 
	CHANNELS 6 Xposition Yposition Zposition Xrotation Zrotation Yrotation
	JOINT abdomen
	{
		OFFSET 0.000000 3.402643 0.000000 
		CHANNELS 3 Xrotation Zrotation Yrotation
		JOINT chest
		{
			OFFSET 0.000000 8.438565 -0.680529 
			CHANNELS 3 Xrotation Zrotation Yrotation
			JOINT neck
			{
				OFFSET 0.000000 10.207942 -0.272212 
				CHANNELS 3 Xrotation Zrotation Yrotation
				JOINT head
				{
					OFFSET 0.000000 3.130431 0.000000 
					CHANNELS 3 Xrotation Zrotation Yrotation
					End Site
					{
						OFFSET 0.000000 3.130435 0.000000 
					}
				}
			}
			JOINT lCollar
			{
				OFFSET 3.470700 6.669187 -0.816635 
				CHANNELS 3 Yrotation Zrotation Xrotation
				JOINT lShldr
				{
					OFFSET 3.198488 0.000000 0.000000 
					CHANNELS 3 Zrotation Yrotation Xrotation
					JOINT lForeArm
					{
						OFFSET 10.139888 0.000000 0.000000 
						CHANNELS 3 Yrotation Zrotation Xrotation
						JOINT lHand
						{
							OFFSET 8.370511 0.000000 0.000000 
							CHANNELS 3 Zrotation Yrotation Xrotation
							End Site
							{
								OFFSET 4.083176 0.000000 0.000000 
							}
						}
					}
				}
			}
			JOINT rCollar
			{
				OFFSET -3.470700 6.669187 -0.816635 
				CHANNELS 3 Yrotation Zrotation Xrotation
				JOINT rShldr
				{
					OFFSET -3.198488 0.000000 0.000000 
					CHANNELS 3 Zrotation Yrotation Xrotation
					JOINT rForeArm
					{
						OFFSET -10.139888 0.000000 0.000000 
						CHANNELS 3 Yrotation Zrotation Xrotation
						JOINT rHand
						{
							OFFSET -8.370511 0.000000 0.000000 
							CHANNELS 3 Zrotation Yrotation Xrotation
							End Site
							{
								OFFSET -4.083176 0.000000 0.000000 
							}
						}
					}
				}
			}
		}
	}
	JOINT lThigh
	{
		OFFSET 5.308129 -1.633274 1.361059 
		CHANNELS 3 Xrotation Zrotation Yrotation
		JOINT lShin
		{
			OFFSET -2.041588 -20.007561 0.000000 
			CHANNELS 3 Xrotation Zrotation Yrotation
			JOINT lFoot
			{
				OFFSET 0.000000 -19.190928 -1.224953 
				CHANNELS 3 Xrotation Yrotation Zrotation
				End Site
				{
					OFFSET 0.000000 -2.449906 4.627600 
				}
			}
		}
	}
	JOINT rThigh
	{
		OFFSET -5.308129 -1.633274 1.361059 
		CHANNELS 3 Xrotation Zrotation Yrotation
		JOINT rShin
		{
			OFFSET 2.041588 -20.007561 0.000000 
			CHANNELS 3 Xrotation Zrotation Yrotation
			JOINT rFoot
			{
				OFFSET 0.000000 -19.190928 -1.224953 
				CHANNELS 3 Xrotation Yrotation Zrotation
				End Site
				{
					OFFSET 0.000000 -2.449906 4.627600 
				}
			}
		}
	}
}
MOTION
Frames: 19
Frame Time: 0.011111
-0.222239 37.712746 -39.798862 26.611572 4.938270 5.766342 57.398369 0.462832 -3.649464 -32.932831 0.622083 -0.964151 -20.877296 -6.290129 -0.903010 -30.740072 10.227606 -7.784944 2.424333 -4.683778 1.783845 -62.018116 -36.863037 40.566444 -53.666389 8.443912 9.650569 8.524705 12.647240 -34.934948 -2.738486 -1.140572 2.095526 64.641418 33.241737 21.566750 46.394501 -6.796419 6.748603 -8.534408 -12.637552 28.656111 -72.111710 1.864802 5.719428 94.303528 1.805576 -9.783679 -42.939846 -10.872638 -8.912310 -81.853394 -17.422106 5.955563 103.684631 -3.204597 9.728171 -44.117439 -0.719788 -1.950587 
-0.234570 37.623432 -39.545044 26.106333 4.973915 6.019460 57.368492 0.693072 -3.813439 -33.098465 0.591185 -1.039497 -20.968140 -6.112156 -0.967965 -30.684851 9.874699 -7.746959 2.424333 -4.683778 1.783845 -62.491402 -38.556637 40.519150 -54.015022 8.509463 9.808612 8.524705 12.647240 -35.393932 -2.738486 -1.140572 2.095526 64.563499 34.678749 22.741674 47.614578 -7.118899 7.209968 -8.534408 -12.637552 28.626810 -71.291550 1.874130 5.960267 94.886551 1.892831 -9.784263 -43.142765 -11.067962 -9.123482 -81.183037 -18.094957 5.574604 104.386642 -3.289790 9.694203 -43.680099 -0.712147 -1.825044 
-0.249004 37.522083 -39.296341 25.570137 4.932340 6.153508 57.329895 0.936999 -3.921277 -33.215248 0.553673 -1.102368 -21.199234 -6.005372 -0.979090 -30.559834 9.618668 -7.681136 2.424333 -4.683778 1.783845 -62.964420 -40.103642 40.339550 -54.817448 8.643537 10.143204 8.524705 12.647240 -35.667370 -2.738486 -1.140572 2.095526 64.398033 36.205002 24.109619 49.132210 -7.506195 7.817119 -8.534408 -12.637552 29.085796 -70.443069 2.060254 6.166873 95.479744 1.960722 -9.794593 -43.314224 -11.232646 -9.292426 -80.459694 -18.641354 5.159392 105.028160 -3.388604 9.698854 -43.454464 -0.410372 -1.495631 
-0.278174 37.356686 -39.083126 25.576319 4.794725 5.602320 56.570049 0.635658 -3.764598 -32.981415 0.607414 -1.021615 -21.715996 -6.159405 -0.861186 -30.536409 9.800021 -7.629539 2.424333 -4.683778 1.783845 -63.333435 -41.808167 40.486591 -55.884483 8.802357 10.594781 8.524705 12.647240 -35.432995 -2.738486 -1.140572 2.095526 64.199219 37.985703 25.277943 50.927250 -7.914289 8.537994 -8.534408 -12.637552 29.906109 -70.510178 2.967948 6.580338 96.178848 2.078792 -9.793905 -43.365368 -11.373234 -9.454322 -80.729820 -18.271339 5.032692 105.680099 -3.485780 9.691199 -43.156540 -0.197365 -1.248853 
-0.305241 37.286011 -38.833519 25.281965 4.816069 5.638260 56.191822 0.704294 -3.970473 -32.863987 0.602977 -1.089115 -21.824554 -6.395984 -0.752915 -31.076332 10.328772 -7.742963 2.424333 -4.683778 1.783845 -63.419029 -43.301434 41.207470 -57.209923 8.983858 11.175488 8.524705 12.647240 -34.690811 -2.738486 -1.140572 2.095526 64.061592 39.745918 26.413794 53.004967 -8.333285 9.392770 -8.534408 -12.637552 31.038923 -69.926941 3.222279 6.822398 96.606918 2.127234 -9.796684 -43.407700 -11.480694 -9.559818 -80.256248 -18.573421 4.812534 106.138306 -3.544239 9.671003 -43.200310 0.216720 -0.908448 
-0.334411 37.255337 -38.583309 24.969458 4.842606 5.620798 55.793983 0.729262 -4.174477 -32.854527 0.698449 -1.152140 -21.791515 -6.529847 -0.725090 -31.536032 10.523031 -7.851311 2.424333 -4.683778 1.783845 -63.388443 -44.503189 42.098507 -59.175537 9.196617 12.027653 8.524705 12.647240 -33.391979 -2.738486 -1.140572 2.095526 63.792500 41.449490 27.679684 55.252956 -8.722095 10.345754 -8.534408 -12.637552 32.738140 -69.232269 3.534573 7.046381 96.927658 2.175800 -9.794510 -43.437019 -11.876360 -9.965108 -79.627930 -18.798737 4.578784 106.449371 -3.602145 9.667127 -43.211121 0.525460 -0.639050 
-0.360875 37.256241 -38.323479 24.623560 4.803321 5.633738 55.413555 0.865189 -4.335790 -32.884010 0.771837 -1.220583 -22.067713 -6.752419 -0.660236 -31.455074 10.760983 -7.930189 2.424333 -4.683778 1.783845 -63.186981 -45.677830 42.934441 -61.647095 9.379538 13.139636 8.524705 12.647240 -31.995495 -2.738486 -1.140572 2.095526 63.371376 43.116142 29.072311 57.891899 -9.073709 11.480569 -8.534408 -12.637552 35.540871 -68.475533 3.847975 7.160687 97.160255 2.205747 -9.818104 -43.362637 -12.328553 -10.416248 -78.752647 -18.983654 4.269704 106.567345 -3.583612 9.664386 -42.996460 0.481070 -0.618724 
-0.379821 37.281498 -38.048912 24.244230 4.747095 5.784787 55.058002 1.172324 -4.505119 -32.961666 0.756618 -1.318837 -22.402056 -6.949362 -0.573743 -31.238638 11.043648 -7.974841 2.424333 -4.683778 1.783845 -62.752403 -46.786999 44.298714 -64.353355 9.453363 14.374936 8.524705 12.647240 -28.655653 -2.738486 -1.140572 2.095526 62.959148 44.723927 30.192753 61.009087 -9.347504 12.862450 -8.534408 -12.637552 38.411968 -67.590034 4.022283 7.157608 97.257530 2.234040 -9.800517 -43.257298 -12.863536 -10.934306 -77.652878 -19.296553 3.843629 106.546883 -3.612409 9.664651 -43.142826 0.439299 -0.680935 
-0.392753 37.318790 -37.762619 23.869656 4.597042 5.959680 54.683376 1.610366 -4.599480 -32.990116 0.683100 -1.412053 -22.500196 -6.754519 -0.595577 -31.465555 10.687338 -7.869157 2.424333 -4.683778 1.783845 -62.209656 -48.004818 44.759960 -67.532501 9.369169 15.887217 8.524705 12.647240 -28.567757 -2.738486 -1.140572 2.095526 62.487701 46.381245 31.012384 64.261948 -9.465456 14.355448 -8.534408 -12.637552 40.296734 -66.709190 4.219240 7.052953 97.286484 2.225842 -9.819896 -43.292774 -13.109106 -11.179493 -76.330193 -19.471329 3.364967 106.402122 -3.573650 9.646608 -43.454803 0.404460 -0.810657 
-0.409594 37.361797 -37.474216 23.577044 4.398433 5.922048 54.210079 1.926670 -4.587682 -32.940376 0.554310 -1.450292 -22.308580 -6.247230 -0.724610 -32.370285 9.890315 -7.737460 2.424333 -4.683778 1.783845 -61.438610 -49.391205 45.131542 -70.831375 9.050044 17.493982 8.524705 12.647240 -28.831434 -2.738486 -1.140572 2.095526 61.971447 48.234352 31.731094 67.282211 -9.393192 15.780667 -8.534408 -12.637552 41.117050 -65.895653 4.589613 7.027792 97.277374 2.234071 -9.791771 -43.323685 -13.229272 -11.320098 -75.072533 -19.335077 2.975514 106.138306 -3.544237 9.671008 -43.766609 0.357237 -0.940044 
-0.445681 37.411415 -37.219200 23.598488 4.278366 6.021550 53.344353 2.168185 -4.679456 -32.822575 0.484332 -1.501931 -21.942158 -5.954924 -0.839084 -33.453152 9.339370 -7.721514 2.424333 -4.683778 1.783845 -60.440945 -51.043518 45.411156 -73.944069 8.504532 19.077114 8.524705 12.647240 -29.339245 -2.738486 -1.140572 2.095526 61.317368 50.245323 32.193241 70.123413 -9.150315 17.155893 -8.534408 -12.637552 41.126812 -65.574875 4.804635 6.999765 97.237671 2.233819 -9.809518 -43.048458 -13.304331 -11.356544 -74.325058 -19.257765 2.687469 105.817192 -3.485804 9.683955 -44.019871 0.346078 -1.036638 
-0.457410 37.566296 -36.865242 22.987812 4.167307 5.562081 53.120983 2.151377 -4.424710 -32.705269 0.391953 -1.438052 -21.667278 -5.961825 -0.819535 -34.292503 9.130763 -7.677849 2.424333 -4.683778 1.783845 -59.300140 -53.077694 45.512882 -76.612549 7.798623 20.498743 8.524705 12.647240 -29.788464 -2.738486 -1.140572 2.095526 60.509686 52.267639 32.242699 73.092026 -8.685005 18.642752 -8.534408 -12.637552 40.970566 -64.022758 5.468936 7.134193 97.014191 2.196134 -9.813505 -43.049427 -13.609164 -11.659189 -72.328606 -18.632133 2.451912 105.145370 -3.388995 9.700477 -44.605343 0.419696 -1.104271 
-0.470943 37.701622 -36.513988 22.479420 3.976954 5.183309 52.653751 2.219464 -4.151244 -32.509624 0.232406 -1.368005 -21.552917 -6.050076 -0.767716 -34.792213 9.186472 -7.664545 2.424333 -4.683778 1.783845 -57.879581 -55.387341 45.368126 -78.799202 7.015052 21.742096 8.524705 12.647240 -30.130259 -2.738486 -1.140572 2.095526 59.566017 54.261749 32.011063 76.036850 -7.978542 20.203949 -8.534408 -12.637552 40.589703 -62.684273 6.044970 7.192801 96.782272 2.147787 -9.790672 -42.989056 -14.010719 -12.073959 -70.457588 -17.997864 2.148701 104.425476 -3.299546 9.692312 -45.190193 0.495623 -1.243304 
-0.501918 37.875744 -36.178078 21.936459 3.831403 5.131012 52.314999 2.428390 -4.050502 -32.362747 0.124640 -1.371701 -21.670967 -6.061913 -0.726486 -34.840324 9.281763 -7.630939 2.424333 -4.683778 1.783845 -56.191288 -57.795860 44.909069 -81.027260 5.963969 23.131029 8.524705 12.647240 -29.436903 -2.738486 -1.140572 2.095526 58.324986 56.414661 31.580025 78.619736 -7.092396 21.651911 -8.534408 -12.637552 40.208843 -61.303448 6.288248 7.173484 96.451111 2.117676 -9.791382 -42.805157 -14.086790 -12.114694 -68.410789 -17.664635 1.792202 103.627106 -3.172938 9.727572 -45.695309 0.353622 -1.515213 
-0.537403 38.101593 -35.818104 21.398590 3.789893 5.028507 51.906288 2.471211 -4.013123 -32.265053 0.098427 -1.364922 -21.798574 -6.062734 -0.709243 -34.614414 9.306589 -7.609509 2.424333 -4.683778 1.783845 -54.351154 -60.194157 44.050148 -82.800873 4.862735 24.391018 8.524705 12.647240 -28.557995 -2.738486 -1.140572 2.095526 56.695301 58.638535 30.921871 80.776573 -6.100793 22.974958 -8.534408 -12.637552 39.915874 -59.842239 6.484271 7.223454 95.975594 2.040173 -9.779629 -42.552547 -13.912983 -11.901793 -66.353989 -17.323578 1.505792 102.673737 -3.046686 9.726147 -46.138451 0.076376 -1.907157 
-0.586122 38.362324 -35.446701 20.856607 3.871319 4.848302 51.516609 2.261755 -4.032946 -32.343403 0.141229 -1.345316 -21.803297 -5.961461 -0.665198 -34.281490 9.303479 -7.441367 2.424333 -4.683778 1.783845 -52.261154 -62.562859 42.802044 -84.140106 3.786667 25.549217 8.524705 12.647240 -27.552135 -2.738486 -1.140572 2.095526 54.717880 60.833961 29.978903 82.469604 -5.093028 24.148611 -8.534408 -12.637552 40.072121 -58.234184 6.687331 7.358733 95.313522 1.950854 -9.807627 -42.150944 -13.878843 -11.833618 -64.347229 -16.912350 1.371841 101.652931 -2.889556 9.733458 -46.561005 -0.117646 -2.260468 
-0.654688 38.671772 -35.045525 20.098919 3.966275 4.683713 51.377731 1.991103 -4.104987 -32.441841 0.340232 -1.342403 -21.734289 -5.745696 -0.633457 -34.063297 9.084724 -7.169855 2.424333 -4.683778 1.783845 -49.947395 -64.969307 41.174412 -85.064400 2.835463 26.612551 8.524705 12.647240 -26.116587 -2.738486 -1.140572 2.095526 52.305351 63.214874 28.478189 83.746025 -4.136295 25.192661 -8.534408 -12.637552 39.886578 -56.185394 6.873643 7.450028 94.449532 1.825136 -9.779234 -41.738358 -14.058812 -11.943149 -61.908119 -16.541996 1.240133 100.494896 -2.714334 9.772412 -46.917480 -0.224448 -2.468653 
-0.745810 39.023926 -34.621197 19.168379 3.899945 4.579495 51.404053 1.901936 -4.090955 -32.443050 0.598589 -1.352535 -21.733509 -5.512148 -0.599781 -33.942169 8.741640 -6.855030 2.424333 -4.683778 1.783845 -47.234623 -67.540253 38.668297 -85.646645 2.078523 27.581432 8.524705 12.647240 -25.755260 -2.738486 -1.140572 2.095526 49.335102 65.877190 26.566689 84.624825 -3.322255 26.083389 -8.534408 -12.637552 40.111187 -53.883480 7.235833 7.387475 93.409889 1.658367 -9.789329 -41.318562 -14.337055 -12.135730 -59.005089 -15.984551 0.896436 99.152893 -2.528121 9.779725 -47.173218 -0.431689 -2.737463 
-0.821594 39.404652 -34.171303 18.393202 3.800642 4.514479 51.194908 1.877680 -4.057287 -32.327507 0.895590 -1.379216 -21.947916 -5.520257 -0.433022 -33.567612 8.748365 -6.519917 2.424333 -4.683778 1.783845 -44.107601 -70.107910 35.675373 -85.978699 1.553598 28.484297 8.524705 12.647240 -24.837296 -2.738486 -1.140572 2.095526 45.735867 68.651512 24.010313 85.230515 -2.644426 26.866356 -8.534408 -12.637552 40.247906 -51.712746 7.586136 7.337327 92.204079 1.503209 -9.785544 -40.744041 -14.555966 -12.262648 -56.324116 -15.438577 0.616954 97.694695 -2.324272 9.776359 -47.173195 -0.701497 -2.988700 
